<svg xmlns="http://www.w3.org/2000/svg" width="633.717" height="175.317" viewBox="0 0 633.717 175.317"><defs><clipPath id="a"><path d="M137.34 215.433h567.21v200.49H137.34v-200.49z"/></clipPath></defs><g clip-path="url(#a)" transform="matrix(1.25 0 0 -1.25 -209.32 482.26)"><path fill="#fff" d="M383.397 282.405c-3.74-3.97-8.16-7.14-13.26-9.52-5.102-2.38-11.052-3.57-17.852-3.57-6.8 0-12.863 1.02-18.19 3.06-5.328 2.04-9.803 4.93-13.43 8.67-3.628 3.74-6.404 8.215-8.33 13.43-1.928 5.21-2.89 10.99-2.89 17.34 0 5.78 1.047 11.247 3.146 16.405 2.1 5.156 5.02 9.66 8.76 13.516 3.74 3.85 8.25 6.91 13.52 9.18 5.27 2.265 11.08 3.4 17.43 3.4 6.46 0 12.35-1.164 17.68-3.486 5.33-2.324 9.86-5.47 13.6-9.435l-12.75-12.92c-2.27 2.606-4.93 4.646-7.99 6.12-3.06 1.472-6.57 2.21-10.54 2.21-3.85 0-7.2-.71-10.03-2.125-2.83-1.418-5.18-3.26-7.05-5.525-1.87-2.268-3.26-4.93-4.164-7.99-.91-3.06-1.36-6.178-1.36-9.35 0-3.06.45-6.064 1.36-9.01.907-2.95 2.296-5.61 4.166-7.99s4.22-4.31 7.056-5.78c2.83-1.475 6.178-2.21 10.03-2.21 3.968 0 7.59.765 10.88 2.294 3.288 1.53 6.06 3.59 8.33 6.2l11.9-12.92zm10.147 69.19h19.21l.51-10.03c.906 1.13 2.067 2.38 3.486 3.74 1.415 1.36 3.086 2.607 5.016 3.74 1.93 1.133 4.168 2.097 6.718 2.89 2.55.793 5.466 1.19 8.754 1.19 1.926 0 3.656-.113 5.185-.34 1.53-.23 3.088-.623 4.675-1.19l-4.08-18.87c-1.36.567-2.748.963-4.164 1.19-1.418.227-3.09.34-5.016.34-2.72 0-5.327-.453-7.82-1.36-2.494-.907-4.65-2.21-6.463-3.91-1.815-1.7-3.26-3.74-4.336-6.12-1.08-2.38-1.62-5.043-1.62-7.99v-43.01h-20.06v79.73zm63.072 0h20.062v-79.73h-20.062v79.73zm43.876-16.32h-13.6l3.614 16.32h9.986v25.84h20.06v-25.84h22.384l-3.614-16.32h-18.77v-34.85c0-4.534.765-8.02 2.296-10.455 1.53-2.438 3.994-3.655 7.394-3.655 3.17 0 5.694.45 7.565 1.36 1.87.906 3.654 1.982 5.354 3.23l8.5-12.41c-3.96-3.288-7.87-5.64-11.72-7.055-3.85-1.416-8.16-2.125-12.92-2.125-4.87 0-9.01.71-12.41 2.125-3.4 1.416-6.15 3.426-8.24 6.035-2.1 2.606-3.6 5.75-4.5 9.435-.91 3.68-1.36 7.735-1.36 12.155v36.21zm60.228 16.32h20.063v-79.73H560.72v79.73zm37.892 33.66h20.06v-61.88l28.73 28.22h23.63l-29.92-29.41 33.32-50.32h-23.97l-23.12 36.72-8.67-8.5v-28.22h-20.06v113.39zm-120.876-10.54c0-6.124-4.966-11.09-11.09-11.09s-11.09 4.966-11.09 11.09 4.966 11.09 11.09 11.09 11.09-4.964 11.09-11.09m104.104 0c0-6.124-4.965-11.09-11.09-11.09-6.123 0-11.09 4.966-11.09 11.09s4.967 11.09 11.09 11.09c6.125 0 11.09-4.964 11.09-11.09"/><path fill="#21bdc4" d="M250.817 340.376c-3.98-3.98-10.435-3.986-14.42-.005-6.303 6.3-14.317 10.26-22.988 11.45-.19-1.38-.3-2.79-.3-4.23 0-16.84 13.65-30.49 30.49-30.49 16.84 0 30.49 13.66 30.49 30.5s-13.65 30.497-30.5 30.497c-7.687 0-14.7-2.847-20.06-7.54 10.22-2.71 19.582-8.067 27.27-15.74 3.98-3.983 3.98-10.435 0-14.42"/><path fill="#21bdc4" d="M243.604 306.533c-16.84 0-30.492-13.654-30.492-30.49 0-1.44.108-2.85.298-4.233 8.67 1.19 16.683 5.147 22.986 11.447 3.984 3.98 10.442 3.978 14.42-.01 3.98-3.982 3.977-10.435-.004-14.415-7.68-7.676-17.05-13.034-27.266-15.744 5.362-4.692 12.375-7.537 20.058-7.537 16.84 0 30.493 13.66 30.493 30.5s-13.652 30.49-30.493 30.49"/><path fill="#21bdc4" d="M167.458 311.818c0-10.79 4.2-20.93 11.83-28.57.676-.67 1.377-1.307 2.09-1.93 16.808.035 30.43 13.677 30.43 30.5 0 16.82-13.62 30.456-30.43 30.492-.714-.625-1.417-1.264-2.096-1.938-7.623-7.628-11.824-17.773-11.824-28.554"/></g></svg>